<?xml version="1.0" encoding="utf-8"?>
<svg xmlns="http://www.w3.org/2000/svg" xmlns:xlink="http://www.w3.org/1999/xlink" style="margin: auto; background: rgb(241, 242, 243); display: block; shape-rendering: auto;" width="187px" height="187px" viewBox="0 0 100 100" preserveAspectRatio="xMidYMid">
<g transform="translate(50 50)">
<g>
<animateTransform attributeName="transform" type="rotate" values="0;45" keyTimes="0;1" dur="0.2247191011235955s" repeatCount="indefinite"></animateTransform><path d="M16.24807680927192 -5 L22.24807680927192 -5 L22.24807680927192 5 L16.24807680927192 5 A17 17 0 0 1 15.024659199008795 7.9535913871433195 L15.024659199008795 7.9535913871433195 L19.26729988612808 12.196232074262603 L12.196232074262607 19.26729988612808 L7.953591387143321 15.024659199008793 A17 17 0 0 1 4.999999999999999 16.24807680927192 L4.999999999999999 16.24807680927192 L4.999999999999999 22.24807680927192 L-4.999999999999997 22.24807680927192 L-4.999999999999997 16.24807680927192 A17 17 0 0 1 -7.9535913871433195 15.024659199008795 L-7.9535913871433195 15.024659199008795 L-12.196232074262603 19.26729988612808 L-19.26729988612808 12.196232074262607 L-15.024659199008793 7.953591387143322 A17 17 0 0 1 -16.24807680927192 5 L-16.24807680927192 5 L-22.24807680927192 5.000000000000001 L-22.24807680927192 -4.999999999999996 L-16.24807680927192 -4.9999999999999964 A17 17 0 0 1 -15.024659199008795 -7.953591387143319 L-15.024659199008795 -7.953591387143319 L-19.26729988612808 -12.196232074262603 L-12.196232074262603 -19.267299886128082 L-7.953591387143317 -15.024659199008797 A17 17 0 0 1 -5.000000000000009 -16.248076809271918 L-5.000000000000009 -16.248076809271918 L-5.00000000000001 -22.248076809271918 L5.000000000000001 -22.248076809271918 L5.000000000000002 -16.248076809271918 A17 17 0 0 1 7.953591387143311 -15.024659199008799 L7.953591387143311 -15.024659199008799 L12.196232074262596 -19.267299886128086 L19.26729988612808 -12.196232074262603 L15.024659199008795 -7.953591387143318 A17 17 0 0 1 16.248076809271918 -5.00000000000001 M0 -12A12 12 0 1 0 0 12 A12 12 0 1 0 0 -12" fill="#290908"></path></g></g>
<!-- [ldio] generated by https://loading.io/ --></svg>